<svg width="44" height="44" viewBox="0 0 44 44" fill="none" xmlns="http://www.w3.org/2000/svg">
  <g transform="translate(12, 6)">
    <!-- Strawberry shape -->
    <path d="M10 17.5c2.5-5 5.5-6.5 9.5-6-0.5 3-2.5 5.5-5 6.5 2 0 3.5-1.5 5-3-0.5 3-2.5 5.5-6 6.5 2 3 1.5 6-0.5 10-1.5 3-4.5 5-7 5-2.5 0-5.5-2-7-5-2-4-2.5-7-0.5-10-3.5-1-5.5-3.5-6-6.5 1.5 1.5 3 3 5 3-2.5-1-4.5-3.5-5-6.5 4-0.5 7 1 9.5 6z" fill="white"/>

    <!-- Leaf -->
    <path d="M10 13.5c-1-2.5-2-4-4-4-1 0-2 1-2 2 0 1 1 2 2 2 2 0 3-1 4-3 0 2 1 3 3 3 1 0 2-1 2-2 0-1-1-2-2-2-2 0-2.5 2-3 4z" fill="white"/>
  </g>
</svg>
